<?xml version="1.0" encoding="utf-8"?>
<!-- Generator: Adobe Illustrator 16.0.0, SVG Export Plug-In . SVG Version: 6.00 Build 0)  -->
<!DOCTYPE svg PUBLIC "-//W3C//DTD SVG 1.1//EN" "http://www.w3.org/Graphics/SVG/1.1/DTD/svg11.dtd">
<svg version="1.1" id="Layer_1" xmlns="http://www.w3.org/2000/svg" xmlns:xlink="http://www.w3.org/1999/xlink" x="0px" y="0px"
	 width="300px" height="67px" viewBox="0 0 300 67" enable-background="new 0 0 300 67" xml:space="preserve">
<g>
	<defs>
		<rect id="SVGID_1_" y="-7.089" width="302.954" height="85.809"/>
	</defs>
	<clipPath id="SVGID_2_">
		<use xlink:href="#SVGID_1_"  overflow="visible"/>
	</clipPath>
	<g clip-path="url(#SVGID_2_)">
		<defs>
			<rect id="SVGID_3_" y="1.667" width="287.474" height="64.725"/>
		</defs>
		<clipPath id="SVGID_4_">
			<use xlink:href="#SVGID_3_"  overflow="visible"/>
		</clipPath>
		<g clip-path="url(#SVGID_4_)">
			<g>
				<path fill-rule="evenodd" clip-rule="evenodd" fill="#FFFFFF" d="M143.947,67.23c-47.282,0-94.564-0.008-141.846,0.041
					c-1.439,0.001-1.727-0.282-1.722-1.722c0.06-20.664,0.055-41.328,0.006-61.992C0.382,2.304,0.638,2.052,1.891,2.053
					c94.845,0.037,189.688,0.037,284.533,0c1.253,0,1.509,0.251,1.506,1.505c-0.049,20.664-0.054,41.328,0.006,61.992
					c0.005,1.439-0.283,1.723-1.722,1.722C238.792,67.223,191.369,67.23,143.947,67.23z"/>
				<path fill-rule="evenodd" clip-rule="evenodd" fill="#010101" d="M96.841,33.284c-2.308,8.41-4.634,16.786-6.884,25.181
					c-0.338,1.263-0.801,1.837-2.222,1.782c-3.078-0.118-6.164-0.076-9.244-0.015c-1.135,0.022-1.698-0.231-2.044-1.468
					C72.6,45.018,68.687,31.289,64.743,17.568c-0.382-1.327-0.269-1.829,1.276-1.768c2.798,0.11,5.605,0.108,8.403-0.002
					c1.33-0.053,1.789,0.423,2.083,1.67c2.187,9.291,4.452,18.563,6.685,27.843c0.098,0.405,0.088,0.845,0.685,1.131
					c2.312-9.307,4.696-18.562,6.86-27.868c0.5-2.151,1.226-3.008,3.522-2.801c2.71,0.245,5.46,0.099,8.19,0.038
					c1.106-0.025,1.539,0.319,1.806,1.457c2.23,9.495,4.551,18.969,6.946,28.869c1.112-2.599,1.318-5.063,1.832-7.421
					c1.528-7.016,2.93-14.061,4.365-21.097c0.241-1.18,0.606-1.839,2.112-1.835c11.202,0.025,22.404-0.051,33.605-0.172
					c1.568-0.017,2.31,0.263,2.132,2.031c-0.166,1.665-0.102,3.362-0.013,5.039c0.06,1.118-0.314,1.425-1.415,1.409
					c-4.272-0.06-8.546,0.026-12.818-0.054c-1.348-0.025-1.872,0.305-1.791,1.737c0.119,2.094,0.084,4.203,0.009,6.301
					c-0.04,1.119,0.359,1.446,1.449,1.429c3.641-0.055,7.287,0.059,10.925-0.058c1.533-0.049,1.946,0.471,1.798,1.896
					c-0.223,2.129,0.917,4.991-0.482,6.204c-1.219,1.056-3.998,0.33-6.087,0.355c-2.031,0.025-4.066,0.074-6.093-0.02
					c-1.239-0.058-1.551,0.408-1.511,1.569c0.079,2.238,0.1,4.485-0.006,6.722c-0.062,1.315,0.374,1.665,1.656,1.643
					c4.202-0.075,8.406,0.026,12.607-0.06c1.379-0.028,1.866,0.351,1.765,1.759c-0.121,1.673-0.135,3.369,0.004,5.039
					c0.121,1.473-0.497,1.691-1.785,1.683c-7.844-0.052-15.69-0.061-23.535,0.008c-1.395,0.012-1.741-0.389-1.735-1.756
					c0.054-11.487,0.03-22.975,0.03-34.462c0-0.625,0-1.249,0-1.874c-0.101-0.02-0.201-0.04-0.301-0.06
					c-1.457,5.187-2.917,10.372-4.368,15.56c-1.968,7.04-3.952,14.075-5.863,21.13c-0.289,1.065-0.706,1.479-1.838,1.454
					c-3.22-0.072-6.445-0.091-9.665,0.007c-1.263,0.039-1.659-0.488-1.957-1.589c-2.203-8.132-4.464-16.248-6.7-24.371
					C97.435,33.95,97.441,33.583,96.841,33.284z"/>
				<path fill-rule="evenodd" clip-rule="evenodd" fill="#010101" d="M48.287,15.643c1.826,0.197,4.562-0.908,6.104,0.42
					c1.422,1.224,1.626,3.88,2.333,5.917c4.195,12.101,8.365,24.21,12.587,36.3c0.5,1.434,0.549,2.09-1.341,1.976
					c-2.791-0.169-5.602-0.106-8.4-0.014c-1.13,0.038-1.671-0.387-1.903-1.4c-0.016-0.068-0.035-0.137-0.059-0.202
					c-0.682-1.876-0.602-4.516-2.123-5.459c-1.426-0.885-3.8-0.256-5.756-0.267c-2.802-0.014-5.605,0.056-8.403-0.034
					c-1.037-0.033-1.479,0.358-1.774,1.26c-0.645,1.972-0.799,4.646-2.175,5.694c-1.602,1.221-4.314,0.343-6.542,0.363
					c-5.008,0.047-5.017,0.012-3.396-4.646c4.437-12.752,8.909-25.492,13.281-38.265c0.452-1.321,1.03-1.756,2.357-1.667
					C44.679,15.725,46.295,15.643,48.287,15.643z"/>
				<path fill-rule="evenodd" clip-rule="evenodd" fill="#010101" d="M183.661,28.954c-0.84,0-1.685-0.054-2.521,0.011
					c-1.94,0.15-3.422,0.135-3.978-2.469c-0.419-1.963-2.438-2.78-4.544-2.559c-1.765,0.185-3.217,0.849-3.773,2.757
					c-0.602,2.064,0.03,3.703,1.641,5.012c1.678,1.364,3.771,1.757,5.773,2.306c2.218,0.607,4.395,1.314,6.568,2.064
					c9.671,3.339,9.377,14.779,3.813,20.008c-3.823,3.593-8.463,4.752-13.482,4.653c-3.354-0.066-6.664-0.635-9.644-2.38
					c-4.056-2.376-6.254-5.846-6.354-10.61c-0.019-0.831,0.163-1.104,1.007-1.094c3.15,0.038,6.305,0.072,9.453-0.013
					c1.295-0.035,1.179,0.771,1.377,1.591c0.595,2.462,2.5,3.872,5.06,3.854c2.403-0.016,4.187-1.266,4.762-3.338
					c0.567-2.046-0.37-3.892-2.607-5.139c-2.22-1.238-4.709-1.697-7.109-2.388c-1.748-0.503-3.425-1.165-5.115-1.813
					c-9.284-3.558-8.364-15.877-2.401-20.423c4.441-3.385,9.473-4.241,14.86-3.66c2.366,0.255,4.646,0.845,6.801,1.922
					c4.425,2.211,6.149,6.043,6.601,10.692c0.09,0.928-0.426,1.026-1.143,1.019C187.022,28.941,185.342,28.954,183.661,28.954z"/>
				<path fill-rule="evenodd" clip-rule="evenodd" fill="#010101" d="M239.883,36.16c1.667-3.977,3.195-7.612,4.716-11.251
					c1.072-2.568,2.184-5.122,3.175-7.721c0.356-0.935,0.804-1.301,1.817-1.256c1.888,0.083,3.782,0.075,5.671,0.004
					c1.055-0.039,1.457,0.228,1.45,1.38c-0.046,8.893-0.048,17.786,0.001,26.678c0.007,1.225-0.396,1.505-1.559,1.535
					c-5.819,0.151-5.819,0.185-5.819-5.653c0-3.216,0-6.433,0-9.648c-0.117-0.039-0.235-0.079-0.354-0.118
					c-0.866,2.034-1.752,4.06-2.596,6.103c-1.063,2.573-2.14,5.143-3.114,7.749c-0.426,1.139-0.994,1.747-2.289,1.559
					c-0.755-0.109-1.548-0.096-2.306-0.002c-1.188,0.147-1.688-0.389-2.11-1.457c-1.739-4.401-3.583-8.761-5.392-13.134
					c-0.173-0.417-0.376-0.822-0.858-1.175c0,4.65-0.063,9.302,0.036,13.951c0.03,1.465-0.346,1.993-1.832,1.819
					c-1.716-0.201-3.989,0.72-5.035-0.342c-1.05-1.065-0.293-3.326-0.301-5.061c-0.032-7.492,0.022-14.985-0.046-22.477
					c-0.013-1.367,0.332-1.807,1.717-1.717c2.16,0.14,4.824-0.672,6.361,0.327c1.506,0.979,1.896,3.704,2.73,5.683
					C235.885,26.538,237.795,31.151,239.883,36.16z"/>
				<path fill-rule="evenodd" clip-rule="evenodd" fill="#010101" d="M222.751,30.807c-0.009,8.669-6.395,14.999-15.125,14.989
					c-8.728-0.009-15.117-6.477-15.104-15.288c0.013-8.576,6.509-14.98,15.189-14.972C216.521,15.543,222.76,21.879,222.751,30.807z
					"/>
				<path fill-rule="evenodd" clip-rule="evenodd" fill="#020202" d="M258.582,30.558c0-4.34,0.06-8.681-0.035-13.018
					c-0.031-1.429,0.437-1.759,1.787-1.738c4.828,0.075,9.659,0.073,14.487,0c1.308-0.02,1.79,0.242,1.767,1.683
					c-0.063,3.902,0.016,3.903-3.935,3.903c-0.84,0-1.68,0-2.52,0c-4.208,0-4.11,0.003-4.247,4.223
					c-0.057,1.751,0.393,2.302,2.157,2.152c2.015-0.172,4.058,0.006,6.085-0.06c0.927-0.03,1.141,0.273,1.185,1.179
					c0.213,4.307,0.247,4.305-4.13,4.305c-0.141,0-0.28,0-0.42,0c-4.856,0-4.783,0.001-4.872,4.847
					c-0.028,1.564,0.35,2.045,1.941,1.947c2.44-0.148,4.899,0.021,7.347-0.065c1.132-0.04,1.375,0.341,1.396,1.417
					c0.084,4.168,0.127,4.167-4.071,4.167c-4.06,0-8.12-0.055-12.178,0.03c-1.364,0.028-1.809-0.33-1.779-1.745
					C258.64,39.378,258.582,34.968,258.582,30.558z"/>
				<path fill-rule="evenodd" clip-rule="evenodd" fill="#F7901F" d="M237.687,55.64c0.504-2.336,0.896-4.174,1.3-6.009
					c0.615-2.791,0.62-2.79,3.683-2.372c-1.047,3.777-2.073,7.538-3.14,11.288c-0.375,1.318-1.514,0.605-2.314,0.755
					c-0.847,0.159-1.438-0.083-1.676-1.059c-0.478-1.964-1.054-3.903-1.686-6.204c-1.042,1.941-1.311,3.833-1.789,5.627
					c-0.321,1.205-0.767,1.727-2.105,1.697c-1.3-0.029-2.011-0.278-2.33-1.695c-0.565-2.514-1.406-4.966-2.06-7.462
					c-0.527-2.015-2.035-0.725-3.066-0.933c-1.079-0.218-0.938,0.74-0.94,1.418c-0.01,2.378-0.064,4.758,0.021,7.133
					c0.043,1.215-0.396,1.515-1.553,1.529c-1.214,0.016-1.546-0.396-1.506-1.559c0.079-2.305-0.039-4.617,0.048-6.922
					c0.048-1.243-0.255-1.819-1.611-1.672c-0.753,0.081-1.736,0.339-1.728-1.086c0.009-1.463,1.031-1.035,1.762-1.044
					c3.077-0.034,6.157,0.061,9.23-0.049c1.344-0.048,1.813,0.43,2.057,1.689c0.42,2.17,1.04,4.301,1.902,6.424
					c0.484-1.995,0.972-3.988,1.45-5.984c0.296-1.232,0.501-2.221,2.321-2.188c1.726,0.031,1.879,0.956,2.152,2.117
					C236.584,51.107,237.081,53.129,237.687,55.64z"/>
				<path fill-rule="evenodd" clip-rule="evenodd" fill="#F79020" d="M19.784,49.625c-1.695-4.325-0.839-6.471,3.424-8.2
					c-0.896-1.095-1.553-2.259-1.436-3.727c0.121-1.512,0.704-2.661,2.066-3.407c0.343-0.188,0.416-0.474-0.111-0.692
					c-1.001-0.414-0.252-1.092-0.091-1.57c0.248-0.732,0.834-0.236,1.237-0.11c2.333,0.733,4.642,1.549,6.985,2.248
					c1.351,0.402,0.984,1.657,0.454,1.79c-1.55,0.387-0.838,1.242-0.762,2.05c0.21,2.221-0.932,3.642-3.814,4.813
					c-1.261,0.212-1.792,1.08-2.088,2.225c-0.292,1.13-0.836,2.194-1.039,3.847c1.501-0.646,2.173-1.332,1.847-2.725
					c-0.142-0.606-0.465-1.206-0.248-1.828c0.234-0.669,0.41-1.562,1.5-0.99c1.634,2.499,1.559,4.825-0.214,6.641
					c-1.619,1.659-4.168,1.802-6.526,0.364c-0.41-0.25-0.813-0.511-1.218-0.766L19.784,49.625z"/>
				<path fill-rule="evenodd" clip-rule="evenodd" fill="#F7901F" d="M202.157,54.774c0-2.6,0.071-4.553-0.025-6.497
					c-0.063-1.248,0.57-1.293,1.521-1.313c1.025-0.022,1.502,0.194,1.471,1.366c-0.077,2.932,0.021,5.867-0.059,8.799
					c-0.02,0.714,0.611,1.867-0.573,2.115c-1.192,0.25-2.419,0.308-3.226-1.154c-1.126-2.039-2.496-3.944-4.153-5.799
					c0,1.848-0.07,3.698,0.024,5.541c0.063,1.214-0.374,1.504-1.537,1.524c-1.282,0.022-1.47-0.521-1.449-1.609
					c0.058-2.933-0.018-5.867,0.049-8.799c0.016-0.647-0.556-1.735,0.586-1.896c1.022-0.144,2.189-0.438,2.962,0.861
					C199.021,50.061,200.439,52.121,202.157,54.774z"/>
				<path fill-rule="evenodd" clip-rule="evenodd" fill="#F7901F" d="M242.504,53.158c-0.001-3.626,2.743-6.338,6.398-6.324
					c3.469,0.013,6.214,2.81,6.209,6.326c-0.005,3.515-2.718,6.27-6.222,6.316C245.255,59.525,242.505,56.805,242.504,53.158z"/>
				<path fill-rule="evenodd" clip-rule="evenodd" fill="#F79020" d="M265.518,59.048c-4.25,1.52-4.309-2.388-6.385-4.604
					c0,1.398-0.063,2.375,0.017,3.339c0.099,1.18-0.326,1.565-1.53,1.572c-1.245,0.008-1.527-0.466-1.505-1.603
					c0.062-3.072,0.072-6.146-0.004-9.218c-0.031-1.23,0.421-1.572,1.573-1.498c1.392,0.088,2.802-0.066,4.187,0.067
					c1.729,0.167,3.042,1.043,3.501,2.824c0.434,1.684-0.154,3.051-1.619,3.928c-0.792,0.475-0.879,0.836-0.373,1.591
					C264.146,56.591,264.794,57.814,265.518,59.048z"/>
				<path fill-rule="evenodd" clip-rule="evenodd" fill="#F79020" d="M269.891,52.113c2.535-2.074,3.208-6.45,7.767-4.802
					c-1.273,1.571-2.506,3.215-3.876,4.733c-0.781,0.865-0.729,1.46,0.008,2.294c1.324,1.5,2.548,3.089,3.859,4.697
					c-4.557,1.622-5.2-2.728-7.758-4.833c0,1.471-0.059,2.676,0.018,3.871c0.068,1.075-0.433,1.297-1.371,1.256
					c-0.879-0.037-1.64,0.055-1.611-1.255c0.068-3.282,0.067-6.569,0.001-9.852c-0.028-1.38,0.848-1.109,1.659-1.18
					c0.989-0.086,1.388,0.261,1.322,1.285C269.835,49.479,269.891,50.637,269.891,52.113z"/>
				<path fill-rule="evenodd" clip-rule="evenodd" fill="#F79121" d="M206.961,53.218c0-1.61,0.026-3.221-0.01-4.831
					c-0.021-0.9,0.144-1.463,1.247-1.417c1.678,0.069,3.361,0.055,5.04,0.003c0.925-0.028,1.206,0.332,1.195,1.226
					c-0.01,0.871-0.418,1.068-1.165,1.036c-0.699-0.029-1.402,0.031-2.1-0.011c-0.925-0.055-1.206,0.38-1.22,1.252
					c-0.016,0.941,0.238,1.488,1.287,1.386c0.277-0.027,0.56-0.005,0.84,0c0.893,0.016,1.849-0.206,1.812,1.289
					c-0.037,1.472-1.049,0.924-1.769,1.059c-0.869,0.162-2.239-0.634-2.186,1.279c0.031,1.12,0.268,1.736,1.523,1.597
					c0.622-0.069,1.261,0.023,1.889-0.017c0.826-0.052,1.088,0.319,1.084,1.113c-0.003,0.77-0.201,1.162-1.058,1.143
					c-1.75-0.04-3.502-0.045-5.251,0.004c-0.961,0.026-1.186-0.438-1.169-1.279C206.984,56.438,206.962,54.828,206.961,53.218z"/>
				<path fill-rule="evenodd" clip-rule="evenodd" fill="#F79020" d="M35.409,26.49c-0.01,1.458-0.782,2.252-2.146,2.671
					c-0.989,0.304-1.92,0.794-2.92,1.22c0.573,0.85,1.502,0.739,2.229,1.015c0.758,0.288,1.274,0.509,0.936,1.45
					c-0.295,0.821-0.751,0.742-1.46,0.502c-3.295-1.112-6.616-2.147-9.923-3.225c-0.652-0.212-1.339-0.345-0.938-1.407
					c0.39-1.033,0.999-0.693,1.64-0.489c1.699,0.54,3.394,1.096,5.385,1.741c-0.682-2.487-3.518-4.16-1.646-6.848
					c0.333-0.073,0.562,0.103,0.778,0.317c0.749,0.835,1.236,1.834,1.681,2.843c0.616,1.399,1.521,1.588,2.833,0.952
					c0.975-0.473,1.877-1.22,3.077-1.076C35.126,26.218,35.286,26.328,35.409,26.49z"/>
				<path fill-rule="evenodd" clip-rule="evenodd" fill="#F79121" d="M32.823,13.003c1.552,0.488,3.614,1.127,5.67,1.785
					c0.74,0.237,0.667,0.774,0.457,1.356c-0.204,0.562-0.556,0.754-1.136,0.554c-1.386-0.478-2.771-0.962-4.17-1.403
					c-1.434-0.453-2.734-0.267-3.283,1.306c-0.551,1.58,0.06,2.722,1.714,3.242c1.333,0.419,2.655,0.876,3.984,1.311
					c0.641,0.21,1.169,0.427,0.834,1.313c-0.286,0.756-0.682,0.884-1.418,0.628c-2.312-0.802-4.626-1.607-6.974-2.29
					c-1.13-0.329-1.12-1.457-0.645-1.618c1.558-0.53,0.724-1.521,0.728-2.348C28.593,14.747,30.208,13.057,32.823,13.003z"/>
				<path fill-rule="evenodd" clip-rule="evenodd" fill="#F79121" d="M17.795,54.267c-0.396,1.259,0.063,1.873,1.359,2.188
					c1.62,0.395,3.179,1.036,4.777,1.525c0.722,0.221,1.078,0.557,0.838,1.354c-0.248,0.821-0.75,0.856-1.455,0.615
					c-1.648-0.563-3.311-1.085-4.967-1.627c-0.632-0.207-1.28-0.714-1.813,0.189c-0.076,0.128-0.355,0.199-0.537,0.191
					c-0.941-0.038-3.673-3.595-3.507-4.642c0.072-0.454-0.203-1.268,0.707-1.229c0.57,0.023,1.105,0.201,1.045,0.99
					c-0.067,0.889,0.55,1.337,1.271,1.355c0.777,0.021,0.65-0.913,1.006-1.367C17.06,53.638,17.493,53.768,17.795,54.267z"/>
				<path fill-rule="evenodd" clip-rule="evenodd" fill="#F79122" d="M17.795,54.267c-0.426-0.152-0.851-0.305-1.276-0.456
					c0.426-0.62-0.247-1.964,1.297-1.868c0.679,0.042,0.245-0.451,0.153-0.672c-0.269-0.648-0.625-1.401-0.084-1.929
					c0.592-0.577,1.253,0.191,1.899,0.283c0,0-0.035-0.039-0.034-0.039c-0.771,2.041,0.126,3.151,2.048,3.72
					c1.13,0.334,2.247,0.716,3.374,1.063c0.672,0.207,1.104,0.48,0.789,1.324c-0.287,0.766-0.7,0.821-1.418,0.608
					C22.29,55.633,20.147,54.598,17.795,54.267z"/>
				<path fill-rule="evenodd" clip-rule="evenodd" fill="#F79223" d="M35.409,26.49c-0.183-0.011-0.365-0.023-0.548-0.035
					c-2.65-0.893-5.4-1.508-7.898-2.825c-0.133-0.171-0.266-0.341-0.398-0.511c0.033-1.682,0.806-1.898,2.263-1.318
					c1.733,0.689,3.519,1.297,5.333,1.72C36.111,23.976,36.484,24.873,35.409,26.49z"/>
				<path fill-rule="evenodd" clip-rule="evenodd" fill="#FFF9F3" d="M27.709,43.348c-1.462,0.337-1.232,1.209-0.822,2.283
					c0.661,1.732-0.186,3.371-1.784,3.724c-0.916,0.202-1.409-0.035-1.097-1.036c0.514-1.649,1.102-3.275,1.631-4.921
					c0.416-1.291,1.416-0.334,2.101-0.578C27.728,42.995,27.719,43.172,27.709,43.348z"/>
				<path fill-rule="evenodd" clip-rule="evenodd" fill="#F8962C" d="M29.541,11.912c-0.654-0.87-1.204-1.844-2.376-0.901
					c-0.192,0.155-1.082-0.003-1.035-0.692c0.035-0.518,0.152-1.135,0.837-1.294C28.391,8.692,29.775,10.094,29.541,11.912z"/>
				<path fill-rule="evenodd" clip-rule="evenodd" fill="#F8962D" d="M25.632,21.359c-0.049,0.736-0.435,1.233-1.133,1.298
					c-0.795,0.074-1.341-0.326-1.382-1.195c-0.036-0.749,0.369-1.215,1.082-1.286C25.021,20.094,25.477,20.579,25.632,21.359z"/>
				<path fill-rule="evenodd" clip-rule="evenodd" fill="#FEFEFE" d="M52.991,44.503c-3.487,0-6.69,0-10.188,0
					c1.636-4.983,3.235-9.853,5.037-15.342C49.656,34.572,51.292,39.445,52.991,44.503z"/>
				<path fill-rule="evenodd" clip-rule="evenodd" fill="#FFFFFF" d="M199.949,30.515c0.056-5.179,3.035-8.322,7.854-8.286
					c4.649,0.035,7.769,3.509,7.665,8.538c-0.104,5.083-3.238,8.381-7.92,8.333C202.863,39.054,199.894,35.697,199.949,30.515z"/>
				<path fill-rule="evenodd" clip-rule="evenodd" fill="#FFFDFA" d="M26.56,34.803c1.873-0.005,3.416,1.288,3.481,2.918
					c0.062,1.565-1.255,2.915-2.891,2.962c-1.885,0.054-3.594-1.403-3.602-3.07C23.542,36.056,24.88,34.807,26.56,34.803z"/>
				<path fill-rule="evenodd" clip-rule="evenodd" fill="#FFF8F2" d="M20.612,46.077c0.158-0.685,0.414-1.324,0.947-1.808
					c0.607-0.551,1.414-0.874,2.097-0.484c0.761,0.434-0.062,1.085-0.13,1.643c-0.058,0.471-0.171,1.009-0.454,1.362
					c-0.45,0.561,0.085,2.045-1.2,1.691C20.905,48.216,20.544,47.146,20.612,46.077z"/>
				<path fill-rule="evenodd" clip-rule="evenodd" fill="#FFFDFA" d="M248.864,49.584c1.882,0.054,3.271,1.632,3.219,3.658
					c-0.053,2.043-1.5,3.524-3.399,3.478c-1.914-0.048-3.213-1.546-3.17-3.656C245.557,50.959,246.933,49.53,248.864,49.584z"/>
				<path fill-rule="evenodd" clip-rule="evenodd" fill="#FFF4E8" d="M260.211,52.361c-1.124,0.156-1.147-0.644-1.173-1.559
					c-0.027-1.058,0.165-1.752,1.459-1.601c1.051,0.123,1.984,0.389,1.922,1.654C262.357,52.116,261.374,52.327,260.211,52.361z"/>
				<path fill-rule="evenodd" clip-rule="evenodd" fill="#FFFBF7" d="M26.963,23.631c2.759,0.587,5.567,1.039,7.898,2.825
					c-1.273,0.539-2.579,1.011-3.808,1.636c-0.962,0.49-1.465,0.309-1.937-0.654C28.477,26.131,27.688,24.896,26.963,23.631z"/>
			</g>
		</g>
	</g>
</g>
</svg>
