<?xml version="1.0" standalone="no"?>
<!DOCTYPE svg PUBLIC "-//W3C//DTD SVG 20010904//EN"
 "http://www.w3.org/TR/2001/REC-SVG-20010904/DTD/svg10.dtd">
<svg version="1.0" xmlns="http://www.w3.org/2000/svg"
 width="345.000000pt" height="345.000000pt" viewBox="0 0 345.000000 345.000000"
 preserveAspectRatio="xMidYMid meet">
<metadata>
Created by potrace 1.11, written by Peter Selinger 2001-2013
</metadata>
<g transform="translate(0.000000,345.000000) scale(0.100000,-0.100000)"
fill="#000000" stroke="none">
<path d="M183 3434 c-3 -9 -3 -84 0 -168 7 -182 35 -304 96 -422 45 -84 45
-82 0 39 -43 115 -59 227 -59 408 0 136 -2 159 -15 159 -9 0 -18 -7 -22 -16z"/>
<path d="M1119 3432 c5 -9 30 -52 55 -95 26 -43 85 -153 133 -245 48 -92 110
-205 139 -252 64 -105 89 -154 102 -201 9 -33 6 -44 -24 -104 -46 -92 -45
-127 2 -49 68 113 150 179 284 225 51 17 87 22 170 22 178 1 287 -39 411 -148
222 -196 312 -250 429 -261 l65 -5 -69 39 -69 40 29 16 29 15 -60 1 c-55 0
-65 4 -115 42 -30 22 -83 66 -118 96 -56 49 -61 57 -45 66 25 15 262 13 343
-3 103 -19 242 -93 321 -170 77 -77 100 -118 130 -232 29 -111 27 -208 -4
-330 -46 -177 -113 -276 -225 -331 -64 -32 -71 -33 -211 -36 -175 -5 -234 6
-348 64 -131 67 -204 125 -311 247 -124 140 -143 157 -216 201 -60 36 -137 49
-151 26 -3 -5 3 -10 15 -10 65 0 158 -79 297 -252 52 -65 121 -139 154 -164
32 -26 59 -50 59 -55 0 -4 -9 -10 -19 -14 -29 -9 -106 -96 -134 -152 -19 -37
-77 -262 -77 -298 0 -3 -28 11 -62 30 -77 41 -199 83 -253 85 -89 4 -85 -2 25
-39 63 -22 137 -49 164 -60 71 -31 172 -117 196 -166 24 -49 26 -85 5 -85 -16
0 -98 -70 -91 -77 2 -3 27 7 55 21 47 23 51 24 51 7 0 -31 -39 -148 -77 -230
-19 -42 -48 -104 -64 -138 l-28 -63 29 21 c38 29 85 96 116 166 14 32 27 59
29 61 2 2 29 -4 61 -14 79 -23 158 -14 238 25 64 32 144 102 177 155 l19 31
-6 -70 c-6 -67 -4 -76 40 -189 37 -93 46 -128 44 -164 l-4 -47 -27 58 c-16 31
-29 57 -31 57 -1 0 2 -38 6 -84 9 -94 -3 -162 -16 -91 -17 91 -46 95 -46 7 0
-31 -5 -64 -10 -72 -8 -12 -10 -11 -10 7 0 54 -13 54 -35 0 -34 -84 -127 -186
-225 -246 l-35 -21 195 0 195 0 65 35 c36 20 66 31 68 26 2 -6 12 -21 23 -35
20 -25 24 -26 144 -26 137 0 152 6 140 60 -4 16 -3 30 2 31 62 4 86 9 130 29
58 25 123 89 123 120 0 11 9 25 20 32 15 10 20 24 20 55 0 24 -3 43 -6 43 -3
0 -65 -30 -137 -67 -137 -70 -146 -85 -35 -63 71 14 88 6 57 -26 -32 -34 -98
-62 -176 -74 -37 -5 -84 -13 -103 -16 l-35 -6 38 -19 c21 -11 35 -24 32 -29
-4 -6 -40 -10 -82 -10 l-76 0 -73 79 c-40 43 -86 84 -103 90 -29 13 -29 13
-15 47 8 18 14 44 14 58 0 15 7 25 19 29 42 11 31 123 -24 248 -22 50 -41 114
-48 161 -10 74 -10 81 18 168 16 49 32 90 36 90 3 0 12 -14 19 -30 17 -41 84
-109 125 -126 46 -19 72 -18 91 5 12 14 26 17 58 14 22 -2 59 2 81 10 l40 14
-60 8 c-105 12 -138 25 -177 67 l-37 41 9 -34 c5 -19 25 -49 45 -66 34 -33 35
-33 9 -33 -40 0 -76 24 -137 90 l-57 61 0 73 c0 82 -27 201 -63 276 l-24 50
126 0 c181 0 270 27 366 111 44 39 100 124 126 193 21 54 22 55 68 61 92 12
91 11 91 57 l0 41 -44 -6 -44 -6 9 37 c14 60 10 223 -6 287 -29 112 -71 183
-164 275 -99 98 -204 159 -317 186 -68 16 -242 15 -391 -2 -49 -6 -56 -3 -114
35 -127 85 -344 122 -508 87 -75 -16 -222 -78 -242 -103 -18 -21 -26 -15 -37
30 -6 23 -38 89 -70 147 -32 58 -93 173 -136 255 -43 83 -99 187 -124 232
l-47 83 -53 0 c-47 0 -52 -2 -43 -18z m1324 -1909 c29 -14 81 -36 117 -47 60
-19 67 -24 87 -67 34 -71 63 -196 63 -270 0 -71 -27 -164 -77 -263 -30 -60
-93 -122 -164 -161 -45 -25 -65 -30 -124 -30 -44 0 -84 6 -107 17 l-37 16 15
48 c8 26 14 72 14 103 l0 56 52 19 c62 22 134 92 172 167 35 70 36 153 2 225
-21 44 -66 94 -85 94 -4 0 -5 -27 -3 -60 4 -57 3 -61 -31 -95 -19 -19 -42 -35
-51 -35 -24 0 -56 37 -56 66 l0 25 -35 -27 -35 -26 15 28 c8 16 20 29 27 29
16 0 60 82 48 90 -23 14 95 124 133 125 4 0 31 -12 60 -27z m-231 -175 c-7 -7
-12 -8 -12 -2 0 6 3 14 7 17 3 4 9 5 12 2 2 -3 -1 -11 -7 -17z m228 -103 c0
-8 -4 -15 -10 -15 -5 0 -7 7 -4 15 4 8 8 15 10 15 2 0 4 -7 4 -15z m-162 -34
c23 -14 10 -46 -18 -46 -16 0 -26 6 -28 19 -3 16 12 36 28 36 3 0 11 -4 18 -9z
m132 -98 c0 -5 -5 -15 -10 -23 -7 -11 -12 -12 -21 -3 -6 6 -8 16 -5 22 8 12
36 15 36 4z m-50 -62 c0 -12 -9 -20 -25 -23 -19 -4 -25 -1 -25 12 0 22 9 30
32 30 11 0 18 -7 18 -19z m395 -871 c10 -11 16 -20 13 -20 -3 0 -13 9 -23 20
-10 11 -16 20 -13 20 3 0 13 -9 23 -20z"/>
<path d="M180 2870 c0 -3 7 -26 14 -51 26 -86 67 -151 119 -190 l31 -22 -33
41 c-18 22 -55 83 -82 134 -27 51 -48 91 -49 88z"/>
<path d="M110 2735 c-9 -10 -11 -37 -8 -85 7 -92 43 -163 123 -240 35 -32 61
-61 59 -63 -2 -2 -31 0 -65 5 -76 12 -89 7 -89 -35 0 -71 84 -193 154 -222
l31 -13 -30 -8 c-16 -4 -47 -15 -67 -26 -31 -15 -38 -24 -38 -47 0 -48 66 -78
185 -85 39 -2 72 -4 75 -5 3 -1 -41 -25 -97 -55 -162 -85 -250 -154 -307 -240
-32 -48 -36 -61 -36 -118 l0 -63 42 75 c52 93 133 175 263 266 55 39 132 93
170 120 l70 49 -122 11 c-129 13 -196 29 -190 47 2 6 51 27 110 47 58 20 110
39 113 43 4 4 -10 7 -32 7 -62 0 -112 19 -155 57 -40 36 -81 98 -94 141 l-7
23 96 -7 c69 -5 96 -4 96 5 0 6 -5 11 -11 11 -5 0 -7 5 -4 10 3 6 0 10 -8 10
-17 0 -114 100 -149 155 -35 53 -50 109 -46 167 l3 48 45 -36 c25 -20 59 -42
75 -51 22 -10 12 4 -38 51 -68 67 -94 78 -117 51z"/>
<path d="M1353 2360 c-42 -19 -69 -40 -83 -62 -47 -78 -12 -110 98 -88 97 19
181 46 203 66 20 18 26 54 10 54 -5 0 -23 14 -39 30 -42 41 -103 41 -189 0z
m161 -14 c45 -19 51 -32 23 -50 -30 -21 -221 -68 -241 -60 -14 5 -14 9 -1 35
16 30 54 54 120 75 52 17 60 17 99 0z"/>
<path d="M1075 2047 c-228 -77 -361 -182 -444 -349 -104 -206 -61 -462 92
-557 17 -11 68 -29 112 -41 66 -18 96 -21 177 -16 83 4 108 10 170 39 136 64
243 167 319 306 56 103 72 174 67 286 -8 151 -67 258 -176 322 -41 24 -59 28
-147 30 -84 3 -111 -1 -170 -20z m275 -68 c53 -27 106 -87 139 -159 16 -36 27
-67 25 -69 -2 -3 -17 7 -32 22 -30 29 -71 47 -107 47 -24 0 -24 0 -9 -37 29
-68 -12 -143 -77 -143 -36 0 -76 34 -84 71 l-7 31 -30 -29 c-35 -33 -79 -116
-102 -192 -20 -68 -21 -190 -1 -236 16 -40 76 -99 118 -116 l29 -12 -25 -14
c-42 -21 -153 -44 -222 -44 -54 -1 -76 5 -131 33 -99 49 -158 112 -184 196
-53 169 -11 336 120 475 67 72 131 110 264 156 149 52 241 58 316 20z m-180
-354 c0 -8 -7 -15 -15 -15 -8 0 -15 7 -15 15 0 8 7 15 15 15 8 0 15 -7 15 -15z
m-12 -58 c2 -11 -3 -17 -16 -17 -24 0 -32 8 -25 26 7 20 37 13 41 -9z m206 1
c12 -20 -17 -58 -45 -58 -26 0 -43 35 -29 61 14 24 57 23 74 -3z m131 -125
c-15 -28 -15 -27 -9 22 8 63 18 80 22 38 2 -18 -4 -45 -13 -60z m-353 10 c-5
-24 -6 -25 -12 -8 -8 21 -4 35 9 35 5 0 6 -12 3 -27z"/>
<path d="M51 1243 l-51 -57 0 -244 c0 -160 4 -258 12 -284 17 -59 89 -133 161
-167 34 -16 128 -45 209 -65 176 -43 258 -73 334 -121 98 -63 165 -135 209
-224 38 -79 40 -81 75 -80 19 1 27 3 18 6 -9 2 -20 12 -23 21 -6 19 -75 130
-127 205 -43 63 -145 139 -235 177 -39 17 -147 48 -238 70 -201 48 -259 75
-331 153 l-54 58 0 194 c0 112 4 196 10 200 5 3 19 20 30 38 l22 32 -31 -33
-31 -32 0 30 c0 18 13 49 34 77 82 118 85 134 7 46z"/>
<path d="M1520 1250 c-19 -10 -48 -33 -65 -51 -29 -31 -18 -32 18 -1 10 9 17
11 17 4 0 -6 -4 -13 -10 -17 -5 -3 -19 -20 -31 -38 -18 -25 -9 -20 37 22 78
72 82 75 67 67 -16 -9 -17 6 -1 22 16 16 9 15 -32 -8z"/>
<path d="M1591 1116 c-9 -11 -6 -15 17 -19 19 -4 42 -23 67 -56 22 -28 40 -49
42 -48 9 10 -23 81 -48 107 -33 32 -60 38 -78 16z"/>
<path d="M3040 1044 c0 -18 39 -73 62 -87 40 -26 80 -28 123 -8 l40 19 -52 1
c-66 1 -100 14 -140 54 -18 17 -33 27 -33 21z"/>
<path d="M1592 413 c-87 -31 -210 -172 -282 -324 -35 -75 -37 -89 -11 -89 14
0 21 10 25 35 4 19 11 37 16 40 5 3 29 -12 53 -35 l44 -40 151 0 150 0 13 53
c7 28 13 95 14 147 0 77 -4 106 -23 151 -32 79 -65 92 -150 62z m-21 -100
c-34 -67 -71 -81 -71 -28 0 16 13 33 42 54 49 36 57 29 29 -26z"/>
<path d="M791 103 c20 -21 46 -53 58 -71 16 -23 30 -32 49 -32 25 0 22 5 -44
70 -74 72 -126 99 -63 33z"/>
</g>
</svg>
